<svg xmlns="http://www.w3.org/2000/svg" width="48" height="48" viewBox="0 0 256 256" fill="none" id="my-svg">
  <defs><pattern id="a" patternUnits="userSpaceOnUse" width="80" height="80" patternTransform="scale(3.19) rotate(0)"><rect x="0" y="0" width="100%" height="100%" fill="hsla(0,0%,100%,1)"></rect><path d="M-20.133 4.568C-13.178 4.932-6.452 7.376 0 10c6.452 2.624 13.036 5.072 20 5 6.967-.072 13.56-2.341 20-5 6.44-2.659 13.033-4.928 20-5 6.964-.072 13.548 2.376 20 5s13.178 5.068 20.133 5.432" stroke-width="30" stroke="#F79BD3" fill="none"></path><path d="M-20.133 24.568C-13.178 24.932-6.452 27.376 0 30c6.452 2.624 13.036 5.072 20 5 6.967-.072 13.56-2.341 20-5 6.44-2.659 13.033-4.928 20-5 6.964-.072 13.548 2.376 20 5s13.178 5.068 20.133 5.432" stroke-width="30" stroke="#EA1179" fill="none"></path><path d="M-20.133 44.568C-13.178 44.932-6.452 47.376 0 50c6.452 2.624 13.036 5.072 20 5 6.967-.072 13.56-2.341 20-5 6.44-2.659 13.033-4.928 20-5 6.964-.072 13.548 2.376 20 5s13.178 5.068 20.133 5.432" stroke-width="30" stroke="#9F0D7F" fill="none"></path><path d="M-20.133 64.568C-13.178 64.932-6.452 67.376 0 70c6.452 2.624 13.036 5.072 20 5 6.967-.072 13.56-2.341 20-5 6.44-2.659 13.033-4.928 20-5 6.964-.072 13.548 2.376 20 5s13.178 5.068 20.133 5.432" stroke-width="30" stroke="#241468" fill="none"></path></pattern>
    <linearGradient id="gradient1">
      <stop class="stop1" offset="0%" stop-color="#8f66ff"></stop>
      <stop class="stop2" offset="100%" stop-color="#3d12ff"></stop>
    </linearGradient>
  </defs>
  <rect id="backgr" width="256" height="256" fill="none" rx="60"></rect>
  <g id="group" transform="translate(0,0) scale(1)">
    <path d="M74.667 21.333C68.776 21.333 64.000 26.109 64.000 32.000C64.000 37.891 68.776 42.667 74.667 42.667H181.333C187.225 42.667 192.000 37.891 192.000 32.000C192.000 26.109 187.225 21.333 181.333 21.333H74.667Z" fill="url(#a)" stroke-width="14" id="filled" stroke="none" stroke-linecap="round" stroke-linejoin="round"></path>
    <path d="M53.333 53.333C47.442 53.333 42.667 58.109 42.667 64.000C42.667 69.891 47.442 74.667 53.333 74.667H202.667C208.558 74.667 213.333 69.891 213.333 64.000C213.333 58.109 208.558 53.333 202.667 53.333H53.333Z" fill="url(#a)" stroke-width="14" id="filled" stroke="none" stroke-linecap="round" stroke-linejoin="round"></path>
    <path d="M143.403 155.726L117.333 172.017V139.435L143.403 155.726Z" fill="url(#a)" stroke-width="14" id="filled" stroke="none" stroke-linecap="round" stroke-linejoin="round"></path>
    <path fill-rule="evenodd" clip-rule="evenodd" d="M21.333 96.000C21.333 90.109 26.109 85.333 32.000 85.333H224.000C229.891 85.333 234.667 90.109 234.667 96.000V213.333C234.667 219.225 229.891 224.000 224.000 224.000H32.000C26.109 224.000 21.333 219.225 21.333 213.333V96.000ZM123.195 117.940C111.358 110.543 96.000 119.051 96.000 133.013V178.438C96.000 192.400 111.358 200.908 123.195 193.510L159.539 170.798C170.678 163.837 170.678 147.615 159.539 140.653L123.195 117.940Z" fill="url(#a)" stroke-width="14" id="filled" stroke="none" stroke-linecap="round" stroke-linejoin="round"></path>
  </g>
</svg>